<?xml version="1.0" standalone="no"?>
<!DOCTYPE svg PUBLIC "-//W3C//DTD SVG 20010904//EN"
 "http://www.w3.org/TR/2001/REC-SVG-20010904/DTD/svg10.dtd">
<svg version="1.0" xmlns="http://www.w3.org/2000/svg"
 width="1200.000000pt" height="1800.000000pt" viewBox="0 0 1200.000000 1800.000000"
 preserveAspectRatio="xMidYMid meet">

<g transform="translate(0.000000,1800.000000) scale(0.100000,-0.100000)"
fill="#000000" stroke="none">
<path d="M0 11064 l0 -6936 144 143 c80 78 143 146 140 150 -4 8 94 94 108 94
4 0 8 4 7 9 -1 12 83 66 92 60 13 -8 90 36 84 46 -3 6 4 9 17 7 14 -1 22 3 20
11 -1 8 5 11 21 7 16 -4 48 7 103 36 203 108 362 184 388 187 16 1 34 6 41 12
6 5 20 11 31 13 24 5 54 16 76 28 10 5 25 9 33 9 8 0 23 4 33 9 39 20 69 29
99 30 18 1 52 12 75 25 24 13 49 21 57 18 8 -3 20 3 27 13 7 9 25 18 41 19 15
2 38 8 50 14 15 8 24 9 28 2 5 -8 11 -7 21 1 8 6 25 13 38 14 44 5 171 38 213
56 22 10 43 15 46 12 8 -7 155 25 195 43 18 7 52 14 75 14 67 0 190 27 203 44
6 9 21 16 32 16 11 0 32 4 46 10 14 5 91 12 170 14 80 3 153 9 163 14 51 26
100 43 143 49 114 14 200 70 229 148 7 21 26 56 42 79 16 22 46 66 66 96 19
30 56 79 80 108 39 46 49 64 52 95 1 4 12 17 25 28 14 12 22 27 19 34 -2 8 9
26 27 41 17 16 39 46 49 69 10 22 46 69 79 104 34 36 62 70 62 76 0 7 38 48
84 91 70 67 186 202 186 218 0 3 13 19 28 36 25 27 30 29 42 15 14 -17 41 -20
56 -5 7 7 8 -12 3 -57 -9 -81 1 -267 12 -238 6 16 8 14 8 -12 1 -17 -4 -33
-10 -35 -8 -3 -12 -45 -12 -123 -1 -104 3 -132 27 -210 15 -49 36 -104 46
-120 20 -32 50 -158 50 -210 1 -40 21 -65 54 -65 28 0 28 -1 -2 57 -8 15 -8
24 -1 29 6 3 11 4 12 3 1 -2 9 -17 19 -34 9 -16 19 -47 22 -68 3 -20 10 -45
15 -55 16 -31 33 -86 43 -137 5 -27 16 -62 24 -77 8 -15 14 -47 14 -71 0 -34
7 -53 30 -82 16 -20 41 -63 56 -94 14 -31 32 -69 40 -85 8 -16 14 -33 14 -39
0 -5 6 -23 14 -40 8 -18 29 -77 46 -131 18 -55 43 -123 55 -150 13 -28 32 -72
43 -98 11 -25 38 -73 59 -105 40 -60 56 -90 72 -133 10 -29 185 -264 232 -313
17 -18 43 -50 57 -72 15 -22 49 -63 76 -92 27 -29 69 -81 95 -116 46 -64 111
-128 111 -109 0 5 -7 12 -15 16 -8 3 -15 12 -15 21 0 8 -4 15 -9 15 -5 0 -26
26 -47 58 -21 31 -52 72 -68 90 -17 18 -30 38 -28 43 1 6 -2 8 -8 4 -5 -3 -14
5 -19 18 -6 14 -15 27 -22 29 -7 2 -13 20 -13 41 -1 31 -7 40 -38 59 -21 13
-38 26 -38 31 0 12 17 8 30 -8 8 -10 24 -14 42 -11 20 3 28 0 28 -10 0 -8 9
-14 20 -14 11 0 20 4 20 10 0 5 -9 15 -20 22 -27 17 -25 52 3 67 83 45 102 59
100 77 -1 10 5 23 13 27 20 11 17 45 -5 59 -10 6 -17 18 -14 25 3 7 0 13 -7
13 -7 0 -9 11 -6 30 2 16 0 33 -5 36 -13 8 6 30 32 37 18 5 20 2 15 -19 -6
-22 -4 -24 11 -16 32 16 66 -6 70 -45 3 -23 -11 -31 -22 -13 -3 6 -14 10 -23
10 -13 0 -17 -8 -17 -27 1 -22 7 -29 28 -31 20 -2 25 0 22 11 -5 11 4 12 45 7
41 -5 50 -4 50 9 1 9 12 30 26 46 23 28 26 29 38 12 10 -12 15 -14 18 -6 6 17
108 19 128 3 20 -16 89 -23 94 -9 3 6 5 5 5 -2 1 -7 9 -13 19 -13 11 0 6 -7
-16 -20 -33 -21 -42 -40 -18 -40 8 0 22 -3 30 -6 14 -5 15 -2 6 20 -8 22 -7
26 9 26 17 0 26 17 37 67 3 16 -24 38 -34 28 -4 -4 -1 -10 6 -12 17 -6 15 -23
-3 -23 -8 0 -15 5 -15 11 0 7 -13 8 -38 4 -29 -5 -42 -2 -52 10 -20 24 0 38
35 25 23 -9 30 -8 37 5 11 18 35 20 41 3 3 -10 9 -9 21 3 16 15 15 17 -14 29
-22 9 -29 17 -25 30 3 9 -3 28 -14 41 -28 36 -24 93 7 97 12 2 22 8 22 13 0 5
7 9 15 9 9 0 18 7 22 16 3 9 20 22 37 30 17 7 24 13 15 14 -26 0 -39 21 -28
42 7 14 7 23 -1 34 -10 11 -9 15 4 20 9 3 22 2 29 -3 40 -32 99 -19 90 19 -4
22 -4 22 11 5 11 -15 22 -17 46 -12 23 5 36 2 50 -10 24 -22 40 -12 40 25 0
30 1 30 111 43 31 4 113 -48 103 -64 -7 -11 -1 -11 29 0 18 7 26 5 35 -10 7
-10 21 -19 31 -19 20 0 30 -18 32 -53 0 -18 3 -16 15 11 8 17 21 32 29 32 17
0 35 30 35 58 0 12 6 19 16 18 11 -1 17 9 19 29 3 40 32 95 49 95 23 0 36 -46
27 -94 l-8 -44 51 -5 c52 -5 95 13 96 40 0 11 22 38 66 83 8 8 31 24 52 36 25
14 38 29 40 46 3 21 13 30 50 43 26 10 64 17 86 16 28 0 43 5 56 21 15 19 20
20 34 9 9 -7 16 -10 16 -5 0 5 14 10 32 11 17 1 39 12 50 23 10 11 27 20 38
20 10 0 25 3 33 6 8 3 24 -5 36 -18 18 -19 25 -21 41 -10 12 7 20 8 20 2 0 -5
-4 -10 -10 -10 -5 0 -7 -7 -4 -15 4 -8 1 -15 -6 -15 -7 0 -10 -10 -6 -28 10
-44 -60 -111 -107 -103 -5 1 -5 -4 -2 -10 4 -6 16 -9 26 -6 11 3 19 2 19 -2 0
-9 -45 -31 -64 -31 -8 0 -19 -7 -26 -15 -14 -17 -67 -45 -87 -45 -7 0 -13 -7
-13 -15 0 -9 9 -15 24 -15 13 0 38 -3 56 -6 30 -7 31 -8 25 -43 -4 -20 -3 -33
1 -29 4 4 13 3 20 -3 32 -26 -97 -149 -156 -149 -11 0 -20 -10 -23 -28 -3 -15
-10 -46 -15 -69 -5 -24 -6 -43 -1 -43 14 0 42 49 43 76 1 31 19 31 28 -1 8
-31 -8 -93 -31 -120 -9 -11 -24 -30 -32 -41 -21 -32 -100 -137 -116 -154 -24
-27 -103 -138 -103 -144 0 -7 45 44 118 134 21 25 67 74 104 110 41 40 75 84
88 113 12 27 36 65 54 85 70 81 97 126 210 357 65 132 122 249 126 260 12 27
43 98 74 169 14 32 26 62 26 67 0 4 13 37 30 72 16 36 30 70 30 76 0 6 11 34
24 63 14 29 39 89 56 133 57 143 73 178 135 300 33 66 76 161 94 210 18 50 52
132 77 183 45 95 58 146 29 122 -21 -17 -23 4 -28 238 -4 175 -3 202 10 198 8
-3 25 -6 37 -6 28 0 151 -122 206 -205 20 -31 94 -111 164 -179 69 -67 126
-125 126 -129 0 -4 38 -51 85 -104 47 -53 85 -102 85 -107 0 -17 90 -121 101
-118 6 1 8 -2 4 -8 -4 -6 15 -32 42 -58 26 -26 48 -51 49 -57 0 -5 17 -27 37
-48 20 -21 36 -43 34 -50 -1 -7 3 -11 10 -10 7 2 10 -3 7 -10 -2 -7 18 -35 46
-62 27 -27 50 -54 50 -60 0 -7 12 -22 26 -36 14 -13 30 -33 34 -45 10 -24 86
-49 96 -32 7 12 66 4 134 -16 25 -8 95 -19 155 -26 114 -12 270 -44 289 -59 6
-5 34 -12 61 -15 79 -11 248 -54 390 -98 72 -23 137 -41 145 -41 8 0 23 -6 32
-14 9 -8 49 -19 89 -24 46 -6 80 -16 93 -27 28 -25 144 -75 160 -69 6 3 20 -1
31 -9 10 -8 27 -14 37 -14 10 0 26 -4 36 -9 9 -5 51 -19 92 -31 41 -12 91 -33
110 -46 20 -13 51 -27 70 -30 44 -8 82 -27 140 -69 25 -17 58 -35 73 -39 15
-3 37 -17 50 -29 36 -36 78 -64 155 -102 39 -20 72 -40 72 -45 0 -4 11 -15 25
-24 l25 -16 0 6660 0 6660 -6000 0 -6000 0 0 -6936z m5527 1577 c-37 -38 -51
-75 -29 -77 6 -1 14 -3 17 -4 16 -8 32 -4 50 11 11 9 31 19 45 21 14 2 33 17
45 34 20 29 23 31 45 19 13 -7 30 -11 37 -8 24 9 14 -22 -16 -50 -16 -15 -38
-26 -48 -25 -10 2 -20 -1 -23 -7 -3 -6 12 -11 34 -13 28 -3 40 -9 43 -23 9
-32 26 -17 60 50 36 73 53 94 46 59 -3 -14 2 -29 10 -36 11 -10 18 -6 37 18
22 29 23 30 37 10 10 -14 11 -25 3 -39 -5 -11 -10 -29 -10 -41 0 -12 -11 -31
-25 -42 -35 -28 -51 -58 -34 -69 10 -6 9 -16 -6 -48 -20 -44 -13 -64 27 -77
15 -4 18 -12 14 -30 -9 -32 14 -23 36 16 11 20 28 33 48 36 16 4 30 12 30 18
1 28 16 37 43 25 21 -10 29 -9 41 4 28 28 54 30 86 7 37 -27 38 -36 0 -55 -37
-19 -60 -19 -60 0 0 8 -9 15 -20 15 -24 0 -25 -4 -4 -36 16 -23 21 -24 74 -18
78 9 127 -8 135 -45 6 -27 12 -30 78 -43 58 -11 71 -17 69 -31 -3 -19 10 -22
38 -7 12 7 16 17 13 31 -5 20 -3 21 18 15 13 -5 40 -11 59 -14 19 -4 57 -23
83 -42 44 -31 47 -35 29 -43 -14 -6 -31 -4 -52 7 -32 16 -56 13 -45 -5 4 -5
14 -9 24 -9 10 0 21 -8 23 -18 4 -12 21 -23 47 -29 47 -12 61 -2 35 25 -17 16
-17 17 0 20 23 5 38 -10 40 -39 1 -25 65 -63 124 -75 21 -4 48 -24 81 -60 30
-33 58 -54 71 -54 35 0 180 -107 274 -201 57 -58 98 -92 117 -96 38 -7 45 -18
57 -81 9 -50 8 -53 -13 -58 -13 -3 -32 -1 -42 4 -10 6 -48 8 -83 5 -36 -2
-107 -6 -159 -8 -72 -2 -96 -6 -103 -18 -16 -29 -70 -37 -238 -33 -91 2 -181
7 -201 11 -26 5 -46 2 -69 -10 -29 -15 -31 -18 -16 -34 27 -29 18 -38 -43 -45
-38 -4 -64 -13 -76 -26 -19 -21 -13 -40 12 -40 13 0 12 -5 -7 -25 -26 -28 -43
-24 -34 9 4 17 -1 25 -21 36 -25 14 -26 14 -6 22 12 4 21 12 21 18 0 5 16 10
35 10 24 0 37 6 45 20 24 44 -3 43 -71 -3 -23 -15 -29 -16 -54 -3 -15 8 -33
25 -39 38 -14 27 -57 36 -75 14 -10 -12 -8 -16 9 -21 24 -8 22 -24 -6 -39 -10
-6 -21 -14 -25 -18 -5 -8 -95 -2 -110 8 -5 3 -9 18 -9 34 0 16 -4 31 -9 34 -9
6 -53 8 -91 4 -22 -3 -26 2 -30 32 -6 39 2 37 -149 45 -46 3 -90 10 -97 16 -9
7 -19 7 -33 -1 -14 -7 -27 -7 -38 -1 -46 24 -227 37 -273 20 -19 -8 -59 -13
-88 -11 -48 3 -55 6 -75 38 -12 19 -32 37 -43 40 -12 3 -26 16 -33 30 -6 13
-14 24 -19 24 -10 0 -8 42 2 58 4 7 15 11 24 10 22 -4 29 33 8 44 -13 7 -14
13 -6 29 6 11 15 17 20 14 4 -3 11 1 13 7 3 7 6 -2 6 -20 l1 -32 43 26 c49 31
59 43 53 65 -7 33 34 59 82 51 36 -5 38 1 17 41 -13 26 -13 29 10 49 14 12 25
27 25 34 0 26 -22 25 -50 -1 -23 -23 -28 -24 -34 -10 -9 25 -7 74 4 96 9 16 7
19 -15 19 -14 0 -25 3 -25 8 0 16 19 35 37 37 34 3 63 16 72 34 11 19 12 19
-56 22 -41 1 -43 3 -43 31 0 25 4 29 18 26 11 -3 23 2 30 13 7 10 26 26 43 34
30 16 32 16 46 -5 12 -17 18 -19 29 -9 8 7 13 18 10 25 -3 7 1 17 7 22 14 11
97 13 97 2 0 -4 25 -8 55 -8 30 0 55 3 55 7 0 4 15 8 33 8 17 1 45 6 61 12 23
9 26 14 16 26 -17 21 -44 19 -65 -5 -20 -22 -61 -26 -99 -9 -20 9 -23 16 -17
33 5 11 4 32 -1 46 -8 22 -10 23 -19 8 -12 -21 -35 -24 -42 -5 -3 9 -7 9 -18
0 -17 -14 -89 -13 -89 1 0 6 -7 2 -15 -8 -14 -18 -15 -18 -21 -1 -5 11 -1 22
9 30 10 7 17 22 17 34 0 11 5 21 10 21 6 0 10 8 10 18 0 14 -2 15 -10 2 -7
-11 -10 3 -10 45 1 66 15 95 49 95 12 0 30 8 39 17 16 16 17 15 20 -1 2 -11
-11 -34 -31 -55z m1085 -318 c28 -25 22 -33 -12 -17 -30 16 -40 34 -18 34 6 0
20 -7 30 -17z m2518 -894 c0 -14 -5 -19 -17 -17 -23 4 -28 25 -6 31 10 3 19 5
21 6 1 0 2 -8 2 -20z m-2308 -81 c-9 -9 -15 -9 -24 0 -9 9 -7 12 12 12 19 0
21 -3 12 -12z m1209 -134 c30 -20 56 -37 58 -39 8 -8 -106 28 -138 44 l-34 16
29 6 c16 4 30 7 30 8 1 0 26 -15 55 -35z m-2154 -117 c18 -17 31 -32 29 -34
-5 -6 -80 28 -98 45 -10 8 -18 19 -18 25 0 18 55 -4 87 -36z m1633 -17 c8 -4
39 -10 68 -13 30 -3 59 -10 65 -17 7 -6 8 -10 2 -8 -25 8 -13 -16 21 -43 21
-16 44 -39 51 -49 8 -11 18 -20 23 -20 12 0 70 -60 70 -71 0 -5 5 -9 10 -9 13
0 45 -32 53 -53 3 -9 16 -17 27 -17 21 0 27 -14 10 -25 -6 -3 -17 1 -26 9 -8
9 -25 16 -37 16 -12 0 -35 8 -52 18 -51 31 -189 81 -223 80 -17 -1 -37 4 -44
10 -7 6 -59 16 -116 23 -56 7 -102 17 -102 21 0 4 -9 8 -19 8 -28 0 -37 21
-17 36 10 7 15 17 11 23 -3 6 -2 11 4 11 6 0 18 15 27 33 9 17 21 35 25 38 14
9 151 8 169 -1z m834 -6 c9 -3 16 -13 16 -21 0 -21 -54 -13 -58 10 -4 18 13
22 42 11z m151 -23 c3 -5 0 -13 -5 -16 -16 -10 -82 4 -75 16 8 12 72 12 80 0z
m-3140 -28 c17 -6 44 -17 60 -26 17 -8 42 -21 57 -27 23 -11 25 -15 12 -27
-10 -11 -28 -13 -67 -9 -115 12 -419 18 -413 8 10 -16 -9 -23 -43 -16 -24 5
-29 9 -20 20 6 7 16 11 24 8 7 -3 27 1 43 10 16 8 32 12 36 9 3 -4 6 1 6 9 0
26 23 36 100 45 92 11 165 9 205 -4z m3234 -46 c17 -58 11 -111 -11 -115 -16
-3 -18 6 -18 83 0 92 10 103 29 32z m-4334 12 c9 -14 4 -18 -33 -25 -28 -6
-32 -4 -32 15 0 17 6 21 29 21 17 0 33 -5 36 -11z m3470 1 c3 -5 1 -10 -4 -10
-6 0 -11 5 -11 10 0 6 2 10 4 10 3 0 8 -4 11 -10z m-1147 -36 c63 -10 20 -24
-61 -20 -45 2 -127 4 -182 5 -76 1 -96 4 -82 12 11 6 33 13 49 16 17 2 40 8
51 12 11 4 59 1 106 -6 47 -8 101 -17 119 -19z m-948 -3 c0 -6 -4 -13 -10 -16
-5 -3 -10 1 -10 9 0 9 5 16 10 16 6 0 10 -4 10 -9z m-1496 -91 c0 -45 -2 -84
-5 -86 -13 -7 -133 12 -136 22 -2 7 3 19 12 27 9 9 22 32 30 51 10 23 28 42
53 55 20 10 39 18 41 16 2 -2 4 -41 5 -85z m4126 8 c6 -21 15 -55 20 -77 30
-114 -15 -388 -88 -538 -83 -172 -141 -246 -257 -334 -58 -43 -176 -100 -254
-123 -88 -26 -501 -22 -501 4 0 4 -31 24 -69 44 -84 44 -220 160 -243 206 -9
19 -19 55 -23 80 -9 68 -46 214 -56 224 -15 17 -10 63 7 70 23 9 27 2 28 -39
1 -31 7 -40 21 -32 2 1 15 -12 28 -30 17 -23 27 -29 34 -22 8 8 17 7 32 -1 24
-12 41 -6 41 16 0 8 5 14 10 14 6 0 10 -7 10 -15 0 -8 12 -17 28 -21 15 -3 39
-10 54 -16 15 -5 46 -11 70 -13 105 -7 168 -30 168 -60 0 -28 22 -26 63 7 38
31 45 33 76 24 28 -8 36 -7 46 8 11 14 9 21 -11 43 -13 14 -24 30 -24 34 0 5
-12 9 -26 9 -22 0 -25 4 -22 28 2 21 9 28 30 30 14 2 34 13 43 26 l17 23 24
-24 c26 -26 40 -25 98 3 35 17 78 18 94 2 19 -19 62 5 55 31 -3 12 -1 21 6 21
6 0 11 -4 11 -9 0 -5 18 -28 40 -50 22 -22 40 -46 40 -52 0 -7 6 -19 14 -28
63 -69 65 -71 105 -71 36 0 45 6 100 67 34 37 61 72 61 78 0 5 15 22 33 37 23
18 39 42 48 75 20 68 17 270 -4 349 -9 34 -17 66 -17 70 1 19 31 -33 40 -68z
m-2867 5 c-7 -2 -21 -2 -30 0 -10 3 -4 5 12 5 17 0 24 -2 18 -5z m1345 -68
c-4 -21 2 -29 38 -52 48 -31 49 -33 32 -96 l-11 -44 -24 20 c-13 11 -23 28
-23 36 0 18 -23 88 -32 96 -3 3 -8 -12 -12 -35 -3 -22 -10 -40 -15 -40 -14 0
7 101 25 121 23 25 27 24 22 -6z m-249 -23 c43 -31 70 -92 80 -178 4 -43 6
-82 4 -87 -5 -8 -43 45 -57 78 -5 11 -8 44 -6 74 1 40 -2 52 -12 49 -7 -2 -17
-14 -22 -25 -9 -18 -21 -21 -110 -26 -91 -4 -103 -3 -123 15 -16 15 -29 18
-52 13 -17 -4 -31 -2 -31 3 0 20 71 81 112 96 58 21 181 15 217 -12z m1077
-51 c-13 -20 -26 -11 -26 16 0 25 1 26 16 11 9 -9 13 -21 10 -27z m494 17 c11
-10 20 -15 20 -11 0 4 16 -8 35 -27 40 -39 43 -56 15 -110 -25 -50 -41 -58
-101 -52 -48 4 -51 3 -88 -37 -42 -45 -57 -48 -115 -22 l-39 17 34 32 c19 18
39 32 45 32 7 0 14 7 18 15 3 8 17 20 31 27 14 6 25 17 25 25 0 13 7 24 38 58
10 12 10 18 0 35 -7 11 -17 20 -23 20 -5 0 -4 4 4 9 21 14 79 7 101 -11z
m-2514 -15 c54 -82 62 -128 18 -105 -11 5 -28 6 -39 1 -40 -16 -48 -11 -41 24
4 17 10 49 13 70 6 44 24 48 49 10z m271 -9 c12 -3 29 -22 39 -42 9 -20 25
-44 34 -55 19 -20 20 -31 3 -62 -5 -11 -13 -33 -17 -48 -6 -24 -4 -28 11 -25
10 2 22 13 28 25 9 18 13 19 29 7 18 -12 18 -14 1 -30 -23 -23 -114 -28 -122
-7 -3 8 -1 19 4 24 12 12 -21 109 -69 202 -7 14 -4 17 14 17 13 0 33 -3 45 -6z
m-46 -143 c4 -35 3 -81 -2 -81 -3 0 -11 10 -17 23 -7 12 -18 30 -24 40 -11 14
-10 19 1 26 14 9 40 4 42 -8z m3329 -5 c0 -3 -4 -8 -10 -11 -5 -3 -10 -1 -10
4 0 6 5 11 10 11 6 0 10 -2 10 -4z m-2684 -77 c18 -11 45 -44 64 -81 47 -89
65 -121 94 -167 15 -22 26 -43 26 -45 0 -3 20 -33 45 -68 104 -147 135 -196
154 -248 16 -41 41 -75 99 -136 75 -77 100 -118 116 -194 9 -43 31 -63 77 -69
35 -5 44 -10 49 -31 9 -40 83 -64 134 -44 18 7 22 34 5 34 -7 0 -9 9 -5 24 4
16 0 28 -11 37 -14 12 -11 15 28 21 24 3 85 7 134 7 116 1 268 24 328 50 84
36 177 128 177 175 0 13 -5 16 -22 10 -24 -7 -58 -37 -58 -52 0 -4 -26 -17
-57 -27 -51 -18 -81 -20 -262 -17 -112 1 -208 5 -212 8 -26 16 14 24 116 24
184 0 378 51 520 138 56 34 148 125 202 200 54 76 148 271 158 327 11 62 30
85 70 85 31 0 35 -3 44 -37 33 -126 21 -393 -24 -539 -14 -44 -25 -89 -25
-101 0 -12 -11 -48 -25 -79 -14 -31 -25 -67 -25 -80 0 -14 -9 -57 -19 -97 -11
-39 -22 -94 -26 -122 -3 -27 -11 -84 -17 -125 -10 -67 -9 -79 7 -110 15 -29
18 -59 18 -175 -1 -154 -25 -406 -48 -500 -8 -33 -14 -72 -15 -86 0 -14 -9
-52 -19 -85 -10 -32 -29 -93 -41 -134 -23 -76 -75 -204 -110 -273 -25 -47 -29
-75 -39 -261 -7 -125 -11 -151 -26 -162 -22 -16 -22 -19 -24 -238 -1 -173 -2
-179 -19 -163 -10 10 -22 17 -27 17 -5 0 0 -7 11 -15 12 -9 15 -17 8 -22 -7
-5 -4 -14 8 -25 10 -10 18 -15 18 -11 0 14 27 -32 33 -56 4 -16 -1 -32 -13
-48 -18 -24 -19 -24 -29 -4 -13 23 -14 44 -3 37 4 -2 9 6 10 20 2 23 -12 30
-53 25 -6 0 -16 8 -23 19 -9 14 -9 20 -1 20 18 0 -9 28 -34 36 -24 7 -67 49
-67 65 0 5 -9 9 -21 9 -11 0 -18 4 -14 9 3 5 -4 12 -15 16 -11 4 -18 10 -15
15 3 5 0 12 -5 15 -8 5 -6 13 6 26 9 10 14 19 9 19 -4 0 -2 6 4 13 6 8 8 17 4
20 -3 4 3 7 15 7 30 0 52 10 52 25 0 7 4 15 10 17 16 5 -1 48 -19 48 -9 0 -23
6 -29 12 -17 17 -36 -10 -20 -29 12 -14 -14 -63 -33 -63 -8 0 -7 5 1 15 10 12
10 15 -4 15 -9 0 -16 -5 -16 -12 0 -6 -3 -8 -6 -5 -4 4 6 25 22 48 16 23 27
51 26 62 -2 11 1 17 7 13 6 -4 9 6 9 24 -1 18 8 40 20 53 12 13 22 27 22 31 0
4 18 32 41 62 23 31 42 61 43 68 1 6 12 26 24 43 12 17 22 36 22 43 0 6 7 18
15 27 9 8 13 23 10 33 -4 12 1 19 16 23 14 4 20 12 18 29 -3 31 11 97 22 104
5 3 7 10 3 15 -3 5 8 30 25 56 17 26 31 54 32 62 0 9 2 24 4 33 4 20 1 23 -38
32 -18 4 -26 3 -23 -3 4 -5 2 -12 -4 -16 -5 -3 -10 2 -11 12 0 14 -2 14 -6 3
-3 -8 -21 -28 -39 -46 -19 -17 -31 -34 -28 -37 8 -7 -20 -37 -35 -37 -5 0 -12
-9 -16 -19 -3 -12 -13 -18 -24 -16 -13 2 -17 -4 -18 -31 -1 -19 4 -34 10 -34
6 0 8 -3 5 -6 -4 -3 -16 0 -28 6 -15 8 -20 8 -16 1 5 -7 -4 -11 -23 -11 -24 0
-31 -4 -31 -20 0 -11 -5 -20 -11 -20 -5 0 -9 10 -7 22 2 15 -6 26 -30 40 l-33
18 6 -22 c4 -14 3 -18 -2 -11 -5 7 -22 11 -37 10 -34 -2 -47 20 -14 25 18 2
23 9 23 32 1 16 6 31 13 34 7 2 12 10 12 18 0 8 7 17 15 21 24 9 46 72 44 125
-2 26 -6 48 -11 48 -11 0 20 74 32 78 16 6 12 39 -5 46 -8 3 -15 10 -15 16 0
6 -7 18 -16 27 -11 12 -18 13 -27 4 -35 -35 -126 12 -114 59 3 11 1 20 -3 20
-4 0 -6 9 -3 20 4 13 0 20 -10 20 -8 0 -18 11 -21 25 -5 21 -12 25 -40 25 -19
0 -36 -5 -38 -12 -6 -16 -86 21 -94 44 -7 24 35 77 63 77 46 2 40 53 -8 70
-39 14 -146 3 -153 -15 -4 -10 3 -14 20 -14 22 0 24 -2 11 -14 -22 -22 -83
-30 -120 -16 -86 34 -124 54 -149 78 -16 14 -36 27 -45 28 -10 1 -71 23 -136
48 -173 68 -229 80 -394 81 -90 1 -146 5 -155 12 -9 8 -19 9 -28 2 -8 -5 -50
-6 -95 -3 -45 3 -106 1 -140 -6 -126 -24 -151 -29 -195 -40 -25 -6 -58 -17
-75 -25 -79 -36 -234 -87 -246 -79 -15 9 -10 27 5 21 8 -3 25 2 38 13 13 10
47 26 76 35 29 10 52 21 52 26 0 5 6 9 13 9 8 0 22 9 32 20 10 11 27 20 38 20
11 0 28 7 38 16 21 19 159 57 214 58 67 3 145 43 145 75 0 6 18 20 40 31 23
12 43 27 46 34 3 8 14 16 25 19 10 3 22 13 26 24 11 31 43 45 43 18 0 -8 -5
-15 -11 -15 -5 0 -7 -4 -4 -10 3 -5 1 -10 -4 -10 -15 0 -14 -26 1 -49 10 -17
8 -24 -15 -47 -35 -34 -35 -67 -2 -82 67 -31 110 1 98 73 -4 28 -2 35 11 35
28 0 19 37 -11 45 -34 8 -55 24 -47 36 3 5 17 6 31 3 23 -6 25 -5 19 12 -17
40 -12 49 24 49 19 0 47 8 61 18 22 14 37 16 94 10 42 -5 70 -13 73 -21 3 -10
-4 -12 -30 -7 -48 9 -59 -7 -46 -65 6 -25 14 -52 18 -60 11 -22 78 -31 130
-18 57 15 72 34 51 67 -7 11 -15 10 -45 -8 -50 -31 -100 -26 -104 10 -4 36 28
46 138 42 101 -3 131 7 151 50 8 18 32 62 53 100 39 70 37 78 -17 58 -19 -7
-29 -6 -43 8 -11 9 -36 27 -56 40 -21 12 -38 27 -38 31 0 19 -76 30 -129 20
-29 -5 -57 -12 -62 -16 -6 -3 -15 -2 -22 4 -15 11 -90 13 -97 3 -3 -5 -29 -11
-57 -14 -48 -5 -53 -4 -53 13 0 23 -29 26 -77 10 -25 -9 -44 -6 -104 14 -41
14 -91 27 -111 29 -20 2 -48 11 -61 20 -17 11 -40 14 -90 10 -37 -3 -70 -10
-73 -14 -3 -5 -23 -9 -44 -9 -21 0 -41 -4 -45 -9 -3 -5 -17 -6 -33 -2 -15 5
-42 6 -61 3 l-33 -5 16 31 c9 17 16 37 16 44 0 17 86 97 130 123 47 26 79 35
86 24 3 -5 -1 -9 -8 -10 -7 0 -3 -5 10 -12 20 -9 26 -7 46 18 18 23 22 35 16
61 -5 23 -3 39 6 51 7 10 14 25 14 34 0 9 7 20 15 23 9 3 15 12 13 19 -2 7 9
26 24 43 50 53 79 93 83 114 2 12 15 49 29 83 13 34 27 86 31 115 4 28 11 52
16 52 5 0 9 4 9 10 0 9 26 43 60 80 22 23 88 22 126 -1z m-2691 -36 c-15 -40
-28 -123 -30 -193 -1 -41 -4 -75 -6 -76 -19 -4 -49 -27 -49 -38 0 -7 -9 -21
-20 -31 -11 -10 -20 -24 -20 -31 0 -7 -16 -42 -35 -78 -34 -65 -35 -69 -35
-180 0 -63 5 -127 10 -142 8 -19 7 -30 -2 -42 -11 -13 -14 -11 -19 9 -4 13 -7
83 -8 154 -1 155 20 249 99 433 27 65 52 129 56 145 3 15 9 27 13 27 4 0 15
14 24 30 20 33 33 40 22 13z m745 -23 c0 -33 28 -100 49 -116 12 -10 18 -33
23 -100 1 -6 10 -11 21 -10 14 1 23 -7 28 -26 4 -16 3 -28 -2 -28 -5 0 -9 8
-9 18 0 14 -2 15 -10 2 -7 -11 -5 -19 10 -32 11 -9 20 -25 20 -35 0 -11 8 -28
18 -39 9 -10 35 -40 56 -67 37 -45 143 -133 176 -145 8 -3 17 -8 20 -11 5 -6
41 -23 113 -55 57 -24 223 -49 287 -42 71 8 124 17 129 22 10 10 10 45 0 42
-6 -2 -10 -8 -9 -13 1 -14 -67 -24 -119 -18 -32 5 -42 3 -37 -5 4 -7 2 -12 -5
-12 -13 0 -49 38 -49 51 0 5 -11 11 -25 15 -14 3 -25 9 -25 13 0 4 -14 6 -30
3 -17 -2 -36 1 -44 7 -7 6 -21 9 -30 5 -9 -3 -16 -2 -16 4 0 5 -16 14 -36 19
-19 4 -34 11 -32 14 6 12 -35 49 -54 49 -10 0 -18 3 -19 8 0 4 -2 15 -4 25 -2
9 1 15 5 12 5 -3 11 -1 15 5 3 5 11 10 16 10 6 0 8 -4 5 -9 -6 -9 40 -26 58
-22 5 1 6 -7 4 -17 -5 -16 -1 -18 26 -13 39 8 41 35 3 39 l-28 3 26 27 c24 24
28 25 36 9 6 -10 14 -15 19 -12 5 3 18 -7 30 -22 17 -22 23 -24 30 -13 5 8 7
17 4 21 -2 4 3 9 11 13 8 3 15 14 15 24 0 11 7 25 14 32 8 6 16 30 18 53 3 38
6 42 31 45 16 2 36 -3 46 -12 14 -13 24 -14 52 -5 64 21 116 22 123 3 3 -9 1
-23 -5 -30 -21 -26 -2 -62 45 -83 34 -15 46 -27 56 -55 6 -20 16 -36 21 -36
21 0 7 -22 -21 -31 -32 -12 -38 -23 -18 -35 8 -5 2 -10 -16 -15 -35 -10 -53
-3 -62 23 -8 26 -24 11 -30 -29 -4 -27 -1 -32 23 -38 67 -17 109 -14 168 9 72
30 105 55 218 168 96 96 114 102 39 11 -117 -140 -236 -223 -392 -271 -19 -6
-84 -19 -144 -28 -103 -16 -115 -16 -209 0 -97 17 -128 27 -214 67 -24 10 -48
19 -55 19 -17 0 -134 111 -190 182 -106 131 -185 327 -187 461 -1 23 3 36 9
32 6 -3 10 -19 10 -35z m1200 24 c0 -8 -4 -12 -10 -9 -5 3 -10 10 -10 16 0 5
5 9 10 9 6 0 10 -7 10 -16z m336 -115 c-14 -51 -31 -97 -37 -103 -9 -8 -10 -6
-6 9 3 11 18 67 34 125 15 58 29 95 31 83 2 -12 -8 -63 -22 -114z m1499 121
c3 -6 -1 -7 -9 -4 -18 7 -21 14 -7 14 6 0 13 -4 16 -10z m-3121 -110 c7 -50
-6 -29 -19 30 -5 23 -4 32 3 25 5 -5 13 -30 16 -55z m196 57 c0 -2 -9 -12 -19
-21 -13 -11 -21 -14 -26 -7 -3 6 4 15 17 20 28 12 28 12 28 8z m2310 -36 c0
-6 -4 -13 -10 -16 -5 -3 -10 1 -10 9 0 9 5 16 10 16 6 0 10 -4 10 -9z m2155
-93 c15 -38 15 -43 1 -54 -22 -16 -20 -32 9 -69 13 -18 22 -35 18 -38 -3 -3 4
-18 16 -33 15 -19 21 -41 21 -77 0 -64 19 -177 30 -177 5 0 11 10 13 23 6 26
0 -203 -8 -280 -3 -38 -14 -67 -41 -108 -20 -30 -41 -55 -45 -55 -5 0 -9 -4
-9 -9 0 -20 -201 -231 -220 -231 -6 0 -10 -4 -10 -8 0 -5 -9 -19 -20 -32 -11
-13 -20 -34 -20 -47 0 -12 -4 -23 -10 -23 -5 0 -10 -9 -10 -19 0 -44 -131 -91
-159 -57 -7 9 -25 16 -38 16 -35 0 -103 71 -103 108 0 51 22 107 55 142 39 41
75 106 75 135 0 24 63 147 85 165 17 14 19 65 6 122 -5 20 -6 52 -2 70 9 42
50 52 74 17 16 -22 13 -49 -6 -49 -15 0 -47 -31 -47 -45 0 -19 74 -45 132 -45
40 0 68 7 99 25 71 39 97 72 103 132 6 57 -5 92 -54 168 -14 22 -33 63 -42 90
-22 64 -33 222 -17 241 18 21 38 17 49 -11 15 -41 33 -31 27 15 -4 34 -2 40
13 40 12 0 24 -15 35 -42z m-1650 12 c3 -5 1 -10 -4 -10 -6 0 -11 5 -11 10 0
6 2 10 4 10 3 0 8 -4 11 -10z m-2944 -148 c5 -2 9 -9 9 -16 0 -6 21 -43 46
-81 68 -104 78 -125 59 -125 -8 0 -14 3 -14 8 4 21 -3 31 -16 26 -11 -5 -13
-2 -8 12 4 12 3 15 -5 10 -8 -5 -10 -2 -6 9 5 11 2 14 -12 9 -12 -4 -15 -3 -7
3 20 14 -1 36 -28 29 -13 -3 -18 -3 -11 0 6 3 10 10 6 15 -3 5 0 9 5 9 6 0 11
4 11 10 0 5 -7 7 -15 4 -8 -4 -16 -1 -16 5 -1 6 -3 16 -4 21 -1 6 -3 17 -4 25
0 8 -8 15 -16 15 -8 0 -12 6 -9 14 3 8 0 25 -7 38 -14 26 -19 56 -11 77 3 8
14 -15 25 -50 11 -35 24 -65 28 -67z m876 88 c-1 -12 -5 -16 -10 -11 -5 5 -6
14 -3 20 11 16 15 13 13 -9z m153 -32 c0 -7 7 -21 14 -31 12 -16 15 -16 29 -2
9 8 22 15 31 15 8 0 18 5 21 10 3 6 21 10 40 10 30 0 34 -3 33 -27 0 -16 1
-34 3 -42 2 -8 -6 -20 -19 -26 -13 -7 -23 -16 -23 -21 3 -43 -36 -57 -77 -28
-22 15 -24 15 -38 -2 -15 -18 -15 -18 -10 -1 3 10 -1 32 -9 48 -9 16 -13 33
-10 38 2 5 -2 11 -10 15 -18 7 -19 28 -3 44 16 16 28 15 28 0z m-835 -88 c8
-13 -5 -13 -25 0 -13 8 -13 10 2 10 9 0 20 -4 23 -10z m112 -54 c-4 -9 -10
-16 -16 -16 -13 0 -20 38 -7 43 16 6 30 -9 23 -27z m-385 -17 c10 -5 18 -16
18 -24 0 -7 5 -17 12 -21 7 -4 8 -3 4 4 -5 8 -2 10 8 6 9 -3 13 -10 10 -15 -3
-5 0 -9 5 -9 6 0 11 8 11 18 0 14 2 15 10 2 5 -8 10 -10 10 -4 0 7 7 15 16 18
14 5 15 4 5 -8 -7 -8 -10 -20 -6 -26 5 -8 -11 -10 -52 -8 l-58 3 -1 -55 c-1
-30 -4 -70 -8 -88 -5 -27 -2 -37 21 -59 23 -24 27 -36 29 -98 3 -94 24 -195
41 -195 7 0 13 -4 13 -10 0 -5 -4 -10 -9 -10 -5 0 -9 -10 -9 -22 0 -13 -4 -45
-8 -72 -5 -36 -3 -50 7 -57 8 -5 9 -9 3 -9 -16 0 -8 -132 11 -177 10 -22 14
-51 11 -68 -4 -19 -1 -38 8 -50 9 -12 11 -27 6 -40 -4 -11 -2 -99 6 -195 17
-221 19 -239 33 -273 6 -16 11 -46 11 -67 0 -22 9 -63 21 -92 11 -29 22 -80
24 -113 3 -33 9 -78 15 -100 21 -76 22 -85 11 -85 -6 0 -11 12 -11 26 0 14 -6
40 -14 57 -14 32 -41 115 -70 212 -32 106 -119 701 -118 800 1 33 2 112 3 175
1 95 -2 126 -20 180 -12 36 -28 94 -36 130 -8 36 -21 84 -29 107 -12 33 -14
73 -10 174 2 72 6 134 8 138 7 11 48 11 68 0z m507 -112 c6 -8 8 -16 5 -20
-10 -9 -34 4 -34 19 0 18 14 18 29 1z m-279 -56 c0 -4 -6 -8 -14 -8 -8 0 -12
6 -9 14 5 13 23 9 23 -6z m6 -27 c-9 -8 -11 -9 -6 -2 6 7 11 21 11 33 1 18 2
18 6 1 3 -10 -2 -25 -11 -32z m-206 -14 c12 -8 11 -10 -7 -10 -13 0 -23 5 -23
10 0 13 11 13 30 0z m276 -15 c-3 -8 -1 -15 4 -15 6 0 10 -4 10 -8 0 -11 -46
-9 -57 2 -4 5 -3 6 4 2 7 -4 17 2 23 14 12 23 25 27 16 5z m2502 -91 c6 -7 12
-14 12 -17 0 -9 -195 94 -202 108 -9 15 167 -69 190 -91z m-2312 -8 c39 -20
76 -36 82 -36 6 0 14 -5 17 -10 9 -14 -43 -2 -70 16 -11 8 -30 14 -43 14 -24
0 -54 20 -115 74 l-32 28 45 -25 c25 -13 77 -41 116 -61z m-116 24 c18 -16 27
-30 20 -30 -9 0 -7 -5 6 -15 18 -15 18 -15 0 -8 -13 4 -17 3 -12 -5 3 -6 1
-14 -5 -18 -8 -4 -9 -3 -5 4 3 6 -3 16 -16 23 -21 11 -21 12 -2 26 19 14 19
14 -1 11 -12 -2 -19 2 -17 10 1 6 -2 12 -8 12 -5 0 -10 5 -10 10 0 17 15 11
50 -20z m-907 -187 c-16 -6 -17 -39 -2 -48 6 -4 8 -14 5 -24 -5 -13 -4 -13 8
2 13 16 14 16 20 -9 10 -37 1 -40 -28 -11 -14 15 -26 23 -26 19 0 -4 -10 9
-21 28 -12 19 -17 36 -12 37 6 2 19 10 29 18 13 9 22 10 29 3 7 -7 6 -12 -2
-15z m1540 -75 c-19 -9 -20 -14 -10 -41 8 -23 7 -32 -1 -35 -7 -2 -10 -8 -6
-13 3 -5 7 -20 10 -34 3 -19 1 -23 -11 -19 -8 4 -15 10 -15 15 0 6 -17 -2 -37
-16 -42 -28 -79 -32 -106 -11 -16 13 -15 15 14 25 18 6 30 14 26 17 -3 3 3 16
14 28 11 11 18 28 16 36 -5 19 20 43 45 45 10 1 21 5 25 8 3 4 18 7 32 6 25 0
25 -1 4 -11z m-839 -33 c-5 -11 -2 -14 12 -9 16 6 16 4 -3 -17 -25 -26 -32
-23 -39 15 -3 21 -1 26 15 26 14 0 19 -5 15 -15z m-50 -3 c3 -5 -1 -9 -9 -9
-8 0 -12 4 -9 9 3 4 7 8 9 8 2 0 6 -4 9 -8z m736 -2 c0 -5 -4 -10 -10 -10 -5
0 -10 5 -10 10 0 6 5 10 10 10 6 0 10 -4 10 -10z m-86 -88 c2 -4 -4 -8 -14 -8
-10 0 -16 4 -14 8 3 4 9 8 14 8 5 0 11 -4 14 -8z m-621 -34 c21 -22 47 -67 47
-81 0 -7 9 -31 20 -52 12 -24 16 -41 10 -43 -19 -7 -40 7 -40 25 0 10 -7 31
-15 47 -8 15 -15 35 -15 42 0 16 -16 19 -25 4 -3 -5 -1 -10 4 -10 6 0 11 -4
11 -9 0 -15 -35 -5 -35 10 -1 8 -7 13 -15 11 -11 -2 -10 2 3 11 9 8 17 24 17
36 0 23 15 28 33 9z m3936 -30 c-12 -23 -28 -38 -41 -38 -14 0 -8 20 12 40 27
27 44 26 29 -2z m-2769 -148 c0 -5 -5 -10 -11 -10 -5 0 -7 5 -4 10 3 6 8 10
11 10 2 0 4 -4 4 -10z m-85 -10 c3 -5 1 -10 -4 -10 -6 0 -11 5 -11 10 0 6 2
10 4 10 3 0 8 -4 11 -10z m-1015 -36 c0 -8 -4 -14 -10 -14 -5 0 -10 9 -10 21
0 11 5 17 10 14 6 -3 10 -13 10 -21z m970 16 c0 -5 7 -10 15 -10 8 0 15 -7 15
-16 0 -25 -44 -13 -48 14 -2 12 1 22 7 22 6 0 11 -4 11 -10z m-115 -79 c-6 -5
-21 -12 -35 -16 -24 -7 -24 -7 -5 9 21 16 56 23 40 7z m1935 -325 c0 -2 -9 -6
-20 -9 -15 -4 -20 0 -20 14 0 17 3 18 20 9 11 -6 20 -12 20 -14z m-720 -66
c21 -11 41 -24 45 -30 4 -7 12 -7 25 0 13 7 29 5 54 -5 19 -8 51 -15 71 -15
19 0 35 -5 35 -11 0 -5 -4 -8 -9 -4 -12 7 -33 -29 -24 -39 4 -3 1 -17 -6 -30
-10 -17 -10 -33 -2 -62 16 -59 4 -65 -120 -66 -306 0 -498 27 -477 68 2 3 -13
11 -32 18 -34 11 -35 13 -31 55 3 39 1 43 -15 37 -23 -9 -115 14 -107 27 3 5
-3 7 -13 3 -11 -3 -25 -2 -33 3 -11 7 -7 14 18 29 22 14 28 22 19 26 -7 3 28
3 77 0 129 -9 431 -1 444 11 10 10 44 4 81 -15z m340 -95 c10 -12 9 -15 -8
-15 -11 0 -25 7 -32 15 -10 12 -9 15 8 15 11 0 25 -7 32 -15z m348 -44 c3 -10
-43 -27 -64 -23 -10 2 -57 -49 -78 -85 -10 -18 16 -53 39 -53 14 0 20 -7 21
-25 1 -14 5 -33 8 -42 6 -15 8 -15 16 -3 6 8 10 10 10 4 0 -6 9 -21 20 -34 23
-27 26 -53 6 -72 -8 -8 -16 -23 -18 -34 -5 -27 -38 -31 -38 -5 0 25 -33 44
-60 36 -11 -4 -20 -15 -20 -25 0 -11 -8 -24 -17 -29 -16 -9 -16 -10 -1 -11 11
0 15 -6 11 -20 -5 -19 -7 -20 -24 -4 -10 9 -15 22 -12 30 3 8 0 14 -6 14 -14
0 -52 41 -46 50 9 15 -24 19 -35 4 -10 -11 -10 -17 0 -29 7 -8 10 -26 8 -39
-3 -15 0 -27 8 -30 20 -8 6 -33 -22 -40 -17 -5 -24 -13 -24 -31 0 -14 1 -26 2
-27 1 -2 -4 -13 -11 -26 -10 -18 -9 -25 2 -37 8 -8 17 -12 19 -9 3 2 4 -7 3
-21 -2 -14 0 -25 4 -25 13 0 44 -74 42 -97 -1 -13 2 -23 8 -23 6 0 11 -11 11
-25 0 -25 13 -31 44 -19 9 3 14 10 11 14 -3 4 5 10 16 13 18 5 20 2 15 -21 -5
-20 -4 -23 4 -12 6 10 10 11 10 3 0 -7 6 -10 14 -7 14 5 40 -49 29 -60 -4 -3
0 -6 8 -6 11 0 14 -11 12 -42 -2 -24 0 -37 3 -30 3 6 21 12 40 12 32 0 34 2
34 34 0 33 -21 63 -38 52 -4 -2 -21 5 -36 18 -23 18 -27 26 -19 42 6 10 9 26
7 34 -16 77 -16 87 2 94 10 4 20 3 22 -3 2 -7 11 -6 27 1 13 6 31 8 41 4 14
-5 13 -10 -11 -32 -20 -19 -25 -28 -16 -37 33 -33 75 -7 85 53 3 22 11 40 17
40 5 0 8 4 5 9 -4 5 2 7 12 4 21 -5 47 -58 36 -74 -5 -9 -2 -10 10 -6 10 4 22
7 28 7 6 0 8 9 4 23 -4 12 -8 37 -9 56 -1 31 1 34 33 36 19 2 47 -3 62 -11 27
-14 46 -5 33 15 -11 19 15 21 47 5 l32 -17 -27 -21 c-15 -12 -27 -32 -27 -44
0 -12 -6 -22 -12 -22 -10 0 -10 -2 0 -8 17 -12 -41 -67 -60 -56 -11 6 -11 5 0
-8 16 -20 -3 -69 -24 -61 -8 3 -15 -7 -20 -31 -6 -34 -8 -36 -47 -36 -31 0
-38 3 -29 12 7 7 8 17 2 28 -7 14 -3 23 20 42 26 22 28 27 16 43 -14 19 -36
13 -36 -11 0 -8 -6 -13 -12 -12 -7 2 -12 -3 -10 -9 1 -8 -9 -13 -25 -13 -25 0
-26 0 -8 -20 10 -11 23 -20 30 -20 7 0 11 -16 9 -45 -3 -53 8 -63 36 -35 11
11 20 16 20 10 0 -5 7 -10 15 -10 19 0 9 -26 -13 -35 -33 -14 -61 -14 -56 0
11 29 -48 41 -88 17 -21 -12 -29 -24 -27 -42 3 -52 0 -57 -27 -52 -16 3 -30
-1 -35 -9 -6 -10 -9 -3 -10 21 -1 35 -1 34 -11 -10 -6 -25 -10 -57 -10 -72 1
-29 -8 -33 -43 -19 -12 5 -25 3 -33 -6 -8 -7 -35 -13 -63 -13 -36 0 -49 -4
-49 -14 0 -21 -38 -45 -61 -39 -12 3 -26 17 -32 30 -8 19 -17 24 -42 22 -38
-4 -57 8 -50 30 7 23 -29 65 -50 57 -8 -3 -15 -13 -15 -22 0 -13 -7 -15 -42
-9 -24 3 -72 8 -108 10 -77 4 -180 44 -191 73 -4 11 -24 32 -43 47 -20 15 -36
34 -36 41 0 24 -29 15 -36 -10 -8 -33 -34 -23 -34 13 0 35 -34 58 -58 39 -9
-7 -23 -21 -30 -31 -22 -29 -64 -18 -84 22 -13 25 -14 38 -6 51 17 27 3 50
-30 50 -41 0 -56 20 -36 48 8 12 12 27 9 32 -4 6 -4 27 0 48 5 28 16 44 45 65
48 34 142 56 196 46 5 -1 22 -1 38 0 21 1 27 5 22 16 -6 17 20 20 44 5 12 -8
11 -11 -8 -16 -18 -5 -20 -9 -11 -20 6 -8 19 -14 29 -14 9 0 29 -10 44 -21 23
-18 35 -20 74 -15 26 4 60 7 76 6 16 0 37 2 47 5 17 6 16 9 -10 31 -16 13 -34
24 -40 24 -7 0 -14 7 -17 15 -4 8 -14 15 -24 15 -44 0 -29 75 17 82 46 8 56
12 77 31 11 10 26 15 32 13 7 -3 24 11 39 30 14 19 31 34 36 34 6 0 7 -4 4
-10 -3 -5 1 -10 9 -10 29 0 38 48 14 77 -6 8 -6 18 0 29 10 17 19 21 76 30 17
2 42 15 56 29 14 14 33 25 43 25 9 0 20 6 24 13 4 7 21 18 36 25 22 9 27 17
22 30 -21 52 -23 50 85 88 41 15 173 11 178 -5z m-373 -73 c6 -4 2 -8 -7 -8
-10 0 -18 7 -18 17 0 9 3 12 8 7 4 -5 12 -12 17 -16z m427 -59 c-1 -13 -7 -25
-12 -27 -5 -2 -7 -9 -4 -17 3 -7 -3 -28 -13 -47 -18 -34 -19 -34 -34 -14 -9
12 -19 33 -22 47 -6 22 -3 28 16 34 13 4 17 8 10 12 -19 7 -16 41 5 45 32 8
57 -8 54 -33z m-292 -269 c0 -5 -7 -10 -16 -10 -8 0 -12 5 -9 10 3 6 10 10 16
10 5 0 9 -4 9 -10z m120 -71 c0 -5 -7 -9 -15 -9 -15 0 -20 12 -9 23 8 8 24 -1
24 -14z m-92 -21 c-6 -17 -38 -19 -38 -2 0 8 9 14 21 14 11 0 19 -5 17 -12z
m792 -28 c0 -13 -7 -20 -20 -20 -13 0 -20 7 -20 20 0 13 7 20 20 20 13 0 20
-7 20 -20z m-1410 -5 c0 -10 -10 -15 -30 -15 -22 0 -28 4 -24 15 4 8 17 15 30
15 15 0 24 -6 24 -15z m50 5 c0 -5 -4 -10 -10 -10 -5 0 -10 5 -10 10 0 6 5 10
10 10 6 0 10 -4 10 -10z m794 4 c20 -8 21 -24 1 -24 -8 0 -15 -7 -15 -15 0 -8
-4 -15 -9 -15 -10 0 -21 24 -21 46 0 15 18 18 44 8z m409 -91 c-4 -10 -2 -14
5 -9 6 3 13 2 17 -4 3 -5 17 -10 30 -10 24 0 24 -1 8 -20 -10 -11 -25 -20 -35
-20 -10 0 -18 -5 -18 -10 0 -11 -49 -3 -64 10 -4 5 4 24 19 44 29 38 49 48 38
19z m-445 -11 c2 -7 -6 -12 -17 -12 -21 0 -27 11 -14 24 9 9 26 2 31 -12z
m476 -105 c-20 -12 -25 -6 -17 22 6 23 7 23 20 5 11 -15 11 -19 -3 -27z m-118
-4 c-10 -10 -19 5 -10 18 6 11 8 11 12 0 2 -7 1 -15 -2 -18z m-506 7 c0 -5 -8
-10 -17 -10 -15 0 -16 2 -3 10 19 12 20 12 20 0z m546 -31 c4 -7 1 -10 -7 -7
-8 3 -19 -2 -26 -11 -13 -19 -28 -9 -20 14 7 17 43 20 53 4z m38 -84 c-7 -17
-64 -21 -64 -4 0 5 4 8 9 4 5 -3 12 -1 16 5 10 17 45 12 39 -5z m-110 -11 c9
-3 16 -13 16 -22 0 -13 -3 -12 -15 4 -14 19 -14 18 -15 -3 0 -16 -6 -23 -20
-23 -17 0 -18 3 -8 25 12 26 17 29 42 19z m-314 -45 c0 -6 -4 -7 -10 -4 -5 3
-10 11 -10 16 0 6 5 7 10 4 6 -3 10 -11 10 -16z m-2718 -36 c-4 -55 -12 -54
-12 2 0 27 3 45 7 41 4 -4 6 -23 5 -43z m2948 -44 c0 -6 -4 -7 -10 -4 -5 3
-10 11 -10 16 0 6 5 7 10 4 6 -3 10 -11 10 -16z m-29 -38 c-9 -6 -11 -16 -6
-32 7 -21 6 -22 -8 -11 -12 10 -16 10 -19 0 -3 -9 -6 -9 -12 0 -8 13 27 52 47
52 9 0 8 -3 -2 -9z m189 -351 c0 -5 -4 -10 -10 -10 -5 0 -10 5 -10 10 0 6 5
10 10 10 6 0 10 -4 10 -10z m115 -230 c3 -5 1 -10 -4 -10 -6 0 -11 5 -11 10 0
6 2 10 4 10 3 0 8 -4 11 -10z m395 0 c0 -5 -4 -10 -9 -10 -6 0 -13 5 -16 10
-3 6 1 10 9 10 9 0 16 -4 16 -10z m-330 -4 c0 -11 -19 -15 -25 -6 -3 5 1 10 9
10 9 0 16 -2 16 -4z m-150 -51 c0 -8 -4 -15 -10 -15 -5 0 -7 7 -4 15 4 8 8 15
10 15 2 0 4 -7 4 -15z m165 5 c3 -5 1 -10 -4 -10 -6 0 -11 5 -11 10 0 6 2 10
4 10 3 0 8 -4 11 -10z m-62 -60 c-3 -11 -12 -20 -20 -20 -11 0 -11 4 -3 20 6
11 15 20 19 20 5 0 7 -9 4 -20z m-73 -37 c-1 -19 -30 -64 -30 -47 -1 5 -8 -4
-17 -21 -10 -18 -18 -25 -21 -17 -2 7 1 19 7 26 9 10 9 15 1 18 -9 3 -8 11 1
31 14 32 59 39 59 10z m120 7 c0 -5 -7 -10 -16 -10 -8 0 -12 5 -9 10 3 6 10
10 16 10 5 0 9 -4 9 -10z m-197 -35 c-17 -29 -26 -36 -34 -24 -11 18 0 38 21
36 10 -1 16 -6 13 -12z m-49 -51 c6 -12 21 -29 35 -38 l26 -16 -22 -6 c-13 -4
-23 -11 -23 -16 0 -5 -10 -8 -22 -6 -20 3 -23 -1 -20 -24 2 -20 -2 -28 -13
-28 -8 0 -15 7 -15 15 0 8 -4 15 -10 15 -5 0 -10 9 -10 20 0 13 -5 18 -15 14
-8 -4 -15 -1 -15 5 0 7 7 14 15 17 8 4 15 10 15 15 0 6 7 21 16 35 20 29 45
28 58 -2z m71 -73 c3 -5 1 -12 -5 -16 -5 -3 -10 1 -10 9 0 18 6 21 15 7z
m-1265 -1830 c0 -6 -4 -13 -10 -16 -5 -3 -10 1 -10 9 0 9 5 16 10 16 6 0 10
-4 10 -9z m-507 -109 c22 -10 26 -15 18 -29 -14 -27 -14 -35 1 -44 11 -7 -6
-7 -55 0 -5 0 -6 5 -3 10 3 4 -3 18 -14 31 -35 41 -8 57 53 32z m-556 -230 c6
-4 14 -19 18 -34 4 -15 13 -29 21 -32 8 -3 14 -12 14 -21 0 -8 5 -15 12 -15 6
0 8 -3 5 -6 -10 -10 -38 17 -31 28 4 6 -4 5 -16 -2 -12 -7 -25 -21 -27 -31 -5
-18 -7 -18 -29 -5 -26 18 -36 5 -23 -31 5 -14 4 -23 -4 -27 -7 -2 -3 -5 7 -5
19 -1 14 -16 -5 -16 -5 0 -8 -4 -6 -10 1 -5 5 -9 9 -8 3 1 9 -4 12 -13 3 -8 2
-12 -4 -9 -6 3 -10 1 -10 -4 0 -18 -29 -12 -40 8 -15 29 -13 61 4 55 10 -4 13
0 11 13 -2 10 -4 21 -4 26 -1 4 -12 5 -25 1 -45 -11 -100 50 -64 72 6 4 14 2
16 -4 2 -7 8 -12 14 -12 5 0 7 9 3 20 -6 18 -4 19 27 8 18 -6 41 -18 50 -26
14 -12 21 -12 32 -2 14 10 13 15 -1 36 -9 15 -11 24 -4 24 6 0 11 7 11 15 0
16 9 19 27 7z m-60 -34 c-3 -7 -5 -2 -5 12 0 14 2 19 5 13 2 -7 2 -19 0 -25z
m161 -93 c-3 -3 -9 2 -12 12 -6 14 -5 15 5 6 7 -7 10 -15 7 -18z m-5 -30 c-2
-8 -11 -16 -20 -19 -11 -5 -13 -2 -9 10 4 9 1 23 -6 31 -10 12 -8 12 15 2 14
-6 23 -17 20 -24z m-113 -131 c0 -7 -9 -15 -19 -19 -11 -3 -18 -12 -15 -19 3
-8 -4 -16 -15 -19 -16 -4 -21 0 -21 14 0 11 6 22 14 25 8 3 17 17 21 31 5 20
8 23 20 13 8 -7 15 -18 15 -26z"/>
<path d="M5522 12527 c-23 -10 -27 -23 -16 -51 9 -24 36 -18 60 12 l22 28 -22
10 c-15 7 -30 7 -44 1z"/>
<path d="M5682 12411 c-11 -7 -11 -9 1 -14 16 -6 27 0 27 15 0 10 -11 10 -28
-1z"/>
<path d="M6145 12360 c-3 -5 -1 -10 4 -10 6 0 11 5 11 10 0 6 -2 10 -4 10 -3
0 -8 -4 -11 -10z"/>
<path d="M5632 12268 c-17 -17 -15 -25 10 -31 24 -7 39 8 31 30 -6 16 -25 17
-41 1z"/>
<path d="M5843 12201 c-14 -23 -5 -35 14 -20 14 12 18 39 5 39 -4 0 -13 -9
-19 -19z"/>
<path d="M5532 12161 c-13 -3 -23 -10 -22 -16 1 -11 36 -8 59 4 19 11 -7 19
-37 12z"/>
<path d="M7710 10205 c0 -8 7 -15 15 -15 8 0 15 7 15 15 0 8 -7 15 -15 15 -8
0 -15 -7 -15 -15z"/>
<path d="M7308 9833 c7 -3 16 -2 19 1 4 3 -2 6 -13 5 -11 0 -14 -3 -6 -6z"/>
<path d="M6855 9530 c3 -5 11 -10 16 -10 6 0 7 5 4 10 -3 6 -11 10 -16 10 -6
0 -7 -4 -4 -10z"/>
<path d="M7315 9360 c3 -5 8 -10 11 -10 2 0 4 5 4 10 0 6 -5 10 -11 10 -5 0
-7 -4 -4 -10z"/>
<path d="M6493 9268 c2 -7 10 -13 17 -13 7 0 15 6 18 13 2 7 -5 12 -18 12 -13
0 -20 -5 -17 -12z"/>
<path d="M7685 9101 c-8 -26 13 -67 27 -53 13 13 6 64 -9 69 -6 2 -14 -5 -18
-16z"/>
<path d="M6996 9044 c-20 -52 5 -70 42 -31 17 18 19 26 10 35 -17 17 -45 15
-52 -4z"/>
<path d="M7130 9020 c0 -5 4 -10 9 -10 5 0 12 -11 15 -25 14 -54 106 -119 119
-82 3 9 7 9 20 -2 15 -12 17 -11 17 7 0 13 -12 28 -30 39 -16 9 -30 23 -30 30
0 7 -11 13 -26 13 -14 0 -37 9 -51 20 -28 22 -43 25 -43 10z"/>
<path d="M7307 8873 c-4 -3 -7 -11 -7 -17 0 -6 5 -5 12 2 6 6 9 14 7 17 -3 3
-9 2 -12 -2z"/>
<path d="M7596 8503 c-6 -14 -5 -15 5 -6 7 7 10 15 7 18 -3 3 -9 -2 -12 -12z"/>
<path d="M8007 8306 c-19 -14 -14 -23 13 -22 8 1 16 9 18 19 4 20 -6 21 -31 3z"/>
<path d="M7975 8259 c-4 -10 -3 -23 0 -29 8 -13 35 -13 35 -1 0 5 3 16 6 24 3
9 -3 16 -15 20 -14 3 -22 -1 -26 -14z"/>
<path d="M7786 8132 c-2 -4 -1 -14 4 -22 7 -11 12 -12 21 -3 6 6 8 16 5 22 -8
13 -23 14 -30 3z"/>
<path d="M7694 8010 c0 -17 6 -20 31 -18 19 2 31 9 33 21 3 13 -4 17 -30 17
-27 0 -34 -4 -34 -20z"/>
<path d="M7815 8000 c3 -5 8 -10 11 -10 2 0 4 5 4 10 0 6 -5 10 -11 10 -5 0
-7 -4 -4 -10z"/>
<path d="M7796 7472 c-6 -11 -1 -60 7 -68 8 -8 37 15 37 29 0 6 -3 7 -7 4 -10
-11 -32 13 -26 29 6 15 -2 19 -11 6z"/>
<path d="M7794 7233 c3 -16 16 -22 16 -8 0 3 0 10 0 15 0 6 -4 10 -9 10 -5 0
-8 -8 -7 -17z"/>
<path d="M5190 10040 c0 -19 3 -21 12 -12 9 9 9 15 0 24 -9 9 -12 7 -12 -12z"/>
<path d="M5057 9929 c-9 -5 -21 -8 -26 -5 -5 3 -15 -2 -22 -11 -12 -14 -11
-15 10 -8 18 5 22 4 16 -5 -6 -9 -4 -11 6 -4 16 10 49 6 65 -7 8 -6 14 -4 18
6 3 9 2 14 -2 11 -5 -3 -15 4 -22 15 -16 22 -19 22 -43 8z"/>
<path d="M5525 10150 c3 -5 8 -10 11 -10 2 0 4 5 4 10 0 6 -5 10 -11 10 -5 0
-7 -4 -4 -10z"/>
<path d="M6324 8574 c3 -9 6 -27 6 -40 0 -14 7 -27 18 -31 9 -3 24 -12 33 -20
22 -18 45 -8 60 28 15 37 7 46 -51 53 -25 3 -46 10 -48 16 -2 5 -8 10 -14 10
-6 0 -7 -7 -4 -16z"/>
<path d="M6295 8569 c-9 -14 -2 -20 14 -10 8 6 9 11 3 15 -6 3 -14 1 -17 -5z"/>
<path d="M6734 8545 c-12 -18 -22 -23 -38 -19 -17 4 -23 -1 -32 -31 -9 -29 -9
-35 4 -35 8 0 23 11 34 25 25 32 50 33 46 3 -2 -15 3 -24 15 -26 10 -2 17 3
17 11 0 8 6 17 14 20 26 10 -5 75 -36 77 -4 0 -15 -11 -24 -25z"/>
<path d="M7272 8226 c2 -19 5 -22 15 -14 18 14 16 38 -2 38 -10 0 -14 -9 -13
-24z"/>
<path d="M6980 8200 c0 -5 -7 -10 -15 -10 -8 0 -15 -6 -15 -14 0 -9 -9 -12
-27 -9 l-28 5 25 -21 25 -20 9 20 c6 13 16 19 27 16 12 -3 18 3 22 19 3 16 0
24 -9 24 -8 0 -14 -4 -14 -10z"/>
<path d="M6872 7925 c4 -17 1 -25 -8 -25 -8 0 -23 -9 -34 -20 -19 -19 -19 -20
0 -30 11 -6 41 -8 68 -4 31 4 52 2 56 -5 12 -18 23 -13 34 17 22 58 23 69 5
76 -10 3 -23 9 -30 12 -6 3 -14 -4 -18 -15 -3 -12 -13 -21 -21 -21 -18 0 -46
25 -37 34 4 3 1 6 -6 6 -9 0 -12 -9 -9 -25z m-2 -45 c0 -5 -4 -10 -10 -10 -5
0 -10 5 -10 10 0 6 5 10 10 10 6 0 10 -4 10 -10z"/>
<path d="M6782 7912 c-20 -6 -21 -9 -9 -26 12 -16 16 -17 35 -5 24 15 30 40
10 38 -7 -1 -23 -4 -36 -7z"/>
<path d="M7015 7730 c-3 -5 -1 -10 4 -10 6 0 11 5 11 10 0 6 -2 10 -4 10 -3 0
-8 -4 -11 -10z"/>
<path d="M7125 7602 c-29 -21 -36 -40 -24 -66 15 -31 20 -32 43 -7 13 14 16
26 10 43 -4 13 -7 26 -6 31 3 9 -10 9 -23 -1z"/>
<path d="M6945 7440 c4 -6 11 -8 16 -5 14 9 11 15 -7 15 -8 0 -12 -5 -9 -10z"/>
<path d="M4386 5255 c4 -8 11 -15 16 -15 6 0 5 6 -2 15 -7 8 -14 15 -16 15 -2
0 -1 -7 2 -15z"/>
<path d="M4416 5215 c4 -8 8 -15 10 -15 2 0 4 7 4 15 0 8 -4 15 -10 15 -5 0
-7 -7 -4 -15z"/>
<path d="M4441 5195 c0 -5 11 -23 25 -40 14 -16 21 -21 16 -10 -16 30 -41 61
-41 50z"/>
<path d="M6323 4666 c9 -7 17 -23 17 -35 0 -12 4 -19 10 -16 6 3 10 19 10 36
0 25 -4 29 -27 29 -25 -1 -26 -2 -10 -14z"/>
<path d="M6811 4646 c-9 -11 -9 -19 1 -35 14 -23 18 -24 42 -15 22 8 20 41 -3
54 -25 13 -26 13 -40 -4z"/>
<path d="M6410 4590 c0 -5 7 -10 15 -10 8 0 15 5 15 10 0 6 -7 10 -15 10 -8 0
-15 -4 -15 -10z"/>
<path d="M6320 4546 c0 -2 7 -7 16 -10 8 -3 12 -2 9 4 -6 10 -25 14 -25 6z"/>
<path d="M7241 4324 c0 -11 3 -14 6 -6 3 7 2 16 -1 19 -3 4 -6 -2 -5 -13z"/>
<path d="M5692 4199 c2 -6 7 -10 11 -10 4 1 19 1 35 2 l27 1 -25 8 c-36 12
-52 11 -48 -1z"/>
<path d="M6900 3813 c-34 -37 -74 -86 -89 -108 -14 -22 -31 -44 -38 -48 -7 -4
-13 -13 -13 -20 0 -6 26 17 58 53 84 93 154 181 149 186 -2 3 -33 -26 -67 -63z"/>
<path d="M8294 3752 c-108 -133 -104 -127 -70 -118 17 4 48 1 80 -9 28 -8 74
-22 101 -30 123 -35 162 -47 190 -60 17 -7 66 -28 110 -45 44 -18 118 -50 165
-72 60 -29 106 -43 158 -49 93 -10 149 -39 229 -114 51 -47 80 -65 148 -91 46
-17 101 -34 122 -37 21 -4 83 -28 138 -55 142 -70 163 -78 230 -91 53 -10 162
-55 175 -72 3 -4 24 -15 48 -24 44 -18 69 -13 41 8 -9 7 -14 18 -11 26 2 7 -2
17 -9 22 -11 6 -9 9 5 15 13 5 23 2 31 -10 12 -15 13 -15 19 0 4 9 5 18 4 19
-13 8 -90 40 -135 56 -30 10 -69 27 -87 38 -87 52 -305 156 -456 218 -47 18
-94 38 -105 43 -11 5 -72 30 -135 55 -63 26 -171 74 -240 108 -69 33 -152 72
-185 86 -114 49 -287 143 -323 176 -38 33 -68 51 -133 78 l-37 15 -68 -86z"/>
<path d="M4428 3643 c4 -115 15 -149 27 -86 4 21 16 46 27 57 10 10 17 25 14
33 -3 8 -6 22 -6 31 0 17 -44 72 -58 72 -4 0 -6 -48 -4 -107z"/>
<path d="M3850 3709 c-85 -41 -202 -89 -216 -89 -6 0 -41 -13 -77 -30 -37 -16
-71 -30 -76 -30 -5 0 -44 -16 -85 -35 -42 -19 -78 -35 -81 -35 -2 0 -88 -40
-189 -90 -102 -49 -188 -90 -192 -90 -3 0 -20 -7 -37 -15 -44 -21 -215 -81
-322 -115 -49 -15 -115 -38 -145 -50 -57 -23 -76 -28 -175 -55 -33 -9 -89 -25
-125 -36 -183 -54 -245 -58 -275 -16 -13 19 -17 20 -25 7 -6 -8 -9 -31 -8 -50
3 -34 4 -35 88 -62 68 -22 104 -27 180 -27 52 0 113 4 135 9 22 6 72 17 112
24 39 8 96 26 126 40 30 14 59 26 65 26 14 0 138 75 167 100 12 10 44 20 80
24 99 10 166 24 191 41 13 8 30 15 39 15 17 0 165 49 180 60 6 4 62 22 125 39
63 17 123 36 132 41 20 11 91 12 157 2 41 -7 45 -10 59 -49 13 -42 46 -62 40
-25 -2 11 4 18 20 20 17 3 22 -2 22 -17 0 -12 6 -21 13 -21 6 0 27 -16 45 -35
17 -20 32 -31 32 -26 0 6 7 8 15 5 8 -4 13 -10 10 -15 -8 -12 29 -29 63 -29
32 0 46 18 31 41 -7 11 -9 11 -9 -3 0 -34 -36 -15 -41 22 -3 20 0 25 19 25 12
0 22 -4 22 -8 -1 -11 27 -37 39 -37 6 0 11 -4 11 -10 0 -5 7 -10 16 -10 8 0
12 5 8 11 -3 6 2 26 12 45 15 28 16 36 6 43 -17 10 -12 73 5 79 7 2 18 -9 24
-24 8 -23 12 -25 19 -14 10 16 11 13 16 -38 3 -38 10 -50 23 -36 5 5 5 35 0
71 -6 47 -27 98 -87 215 -43 84 -82 173 -88 197 -5 25 -13 46 -19 48 -5 1 -39
-11 -75 -28z m126 -466 c-10 -10 -19 5 -10 18 6 11 8 11 12 0 2 -7 1 -15 -2
-18z m-115 -5 c10 -19 8 -24 -12 -41 -14 -11 -25 -15 -27 -8 -2 6 -10 11 -17
11 -7 0 -16 7 -19 16 -9 23 -7 36 4 29 6 -3 10 -1 10 4 0 21 49 12 61 -11z"/>
<path d="M6730 3611 c0 -4 -16 -25 -35 -46 -20 -20 -52 -60 -71 -89 -19 -28
-62 -89 -94 -136 -33 -47 -60 -91 -60 -97 0 -7 -4 -13 -9 -13 -5 0 -18 -19
-30 -42 -12 -24 -30 -56 -41 -73 -19 -30 -62 -104 -89 -154 -8 -14 -17 -28
-21 -31 -4 -3 -19 -29 -34 -58 -15 -29 -42 -75 -61 -100 -18 -26 -37 -60 -40
-75 -6 -24 -25 -39 -25 -19 0 4 -11 21 -25 37 -13 17 -33 41 -44 55 -11 14
-22 22 -26 18 -6 -6 32 -73 57 -99 7 -8 23 -29 34 -47 25 -41 24 -42 102 108
32 63 73 140 90 170 188 339 261 456 355 575 71 89 93 125 77 125 -5 0 -10 -4
-10 -9z"/>
<path d="M5520 3488 c0 -3 36 -55 80 -115 104 -140 110 -148 110 -140 0 8 -22
49 -30 57 -3 3 -27 34 -52 70 -51 71 -108 139 -108 128z"/>
<path d="M122 3453 c-12 -23 -22 -272 -12 -298 7 -18 8 -19 15 -3 4 10 10 16
15 13 4 -2 5 7 2 20 -5 29 5 75 17 75 12 0 22 -42 12 -54 -4 -6 -8 -73 -9
-149 -1 -76 -4 -141 -6 -146 -3 -4 -1 -13 4 -21 5 -8 3 -21 -3 -32 -9 -13 -9
-23 -1 -35 6 -10 8 -31 4 -48 -3 -16 -3 -82 2 -145 4 -63 8 -125 8 -138 0 -13
7 -39 15 -59 8 -19 15 -49 15 -65 0 -16 6 -39 12 -51 13 -23 30 -80 54 -187 8
-35 19 -69 23 -75 9 -12 66 -178 76 -219 3 -15 14 -47 25 -70 32 -72 60 -165
60 -201 0 -47 37 -183 54 -201 8 -7 17 -37 21 -66 4 -29 23 -99 41 -155 19
-56 34 -114 34 -130 0 -15 11 -46 25 -68 14 -22 28 -48 31 -57 4 -10 10 -18
15 -18 5 0 9 -8 9 -17 0 -10 7 -27 15 -37 17 -23 20 -67 5 -82 -11 -11 1 -68
25 -119 8 -16 19 -55 26 -85 7 -30 24 -82 39 -115 38 -83 79 -116 50 -40 -5
14 -12 45 -14 70 -2 24 -13 57 -23 72 -11 15 -25 55 -31 87 -14 71 -14 76 -3
76 10 0 51 -104 51 -129 0 -17 29 -51 43 -51 12 0 7 101 -7 165 -14 62 -47
185 -92 340 -14 50 -33 117 -41 150 -8 33 -21 83 -29 110 -15 54 -49 200 -84
360 -26 117 -37 159 -55 200 -8 17 -23 73 -35 125 -11 52 -24 102 -27 110 -3
8 -16 47 -29 85 -12 39 -29 90 -37 115 -50 145 -174 656 -192 790 -3 25 -20
119 -37 210 -37 202 -52 240 -76 193z"/>
<path d="M7860 3270 c-167 -23 -269 -31 -390 -30 -165 2 -222 -7 -277 -43 -24
-15 -91 -43 -150 -63 -117 -40 -148 -56 -164 -86 -13 -25 -1 -39 12 -15 6 9
15 17 21 17 7 0 7 -5 -1 -14 -14 -16 -10 -67 5 -66 5 1 19 3 32 7 13 3 34 1
46 -5 34 -15 104 4 146 39 35 29 30 41 -6 14 -30 -23 -38 -17 -13 10 26 27 55
33 62 13 2 -8 10 -1 17 15 13 26 29 34 43 20 4 -3 76 -7 159 -9 191 -3 324 16
350 50 13 17 25 22 43 18 24 -4 24 -5 8 -18 -16 -12 -16 -13 -1 -14 34 0 45
10 40 40 -3 18 0 30 7 30 6 0 11 7 11 16 0 8 5 12 10 9 6 -3 10 1 10 9 0 9 6
16 13 16 14 0 47 31 47 43 0 4 -6 6 -12 6 -7 -1 -38 -5 -68 -9z m-500 -140 c8
-15 4 -19 -22 -24 -48 -9 -70 -8 -62 6 5 7 2 9 -7 6 -42 -16 -59 -18 -59 -9 0
5 9 13 20 16 11 3 20 10 20 14 0 5 23 8 50 8 38 0 53 -4 60 -17z m-297 -110
c9 0 17 -4 17 -9 0 -15 -73 -7 -78 8 -3 10 2 12 19 8 13 -4 32 -7 42 -7z"/>
<path d="M4081 3194 c0 -11 3 -14 6 -6 3 7 2 16 -1 19 -3 4 -6 -2 -5 -13z"/>
<path d="M4120 3158 c0 -20 5 -40 10 -43 13 -8 13 45 0 65 -7 11 -10 6 -10
-22z"/>
<path d="M4196 3158 c16 -29 37 -47 47 -41 5 3 7 1 3 -5 -3 -6 1 -17 9 -25 17
-17 20 -37 6 -37 -5 0 -14 -13 -21 -30 -7 -16 -16 -30 -21 -30 -5 0 -9 -7 -9
-15 0 -11 11 -15 40 -15 30 0 38 3 34 14 -3 8 3 19 15 26 12 6 21 7 21 3 0 -5
9 -14 21 -21 16 -10 24 -10 35 -1 10 8 14 8 14 0 0 -6 5 -11 11 -11 6 0 17 -7
25 -15 9 -8 24 -15 35 -15 40 0 42 -56 3 -94 -14 -15 -17 -14 -33 6 -11 13
-24 19 -34 15 -25 -9 -20 -39 10 -61 14 -11 23 -14 19 -8 -9 15 13 27 27 13
15 -15 52 -14 66 3 9 11 9 15 -1 19 -11 4 -11 7 0 18 11 12 15 11 26 -3 7 -10
25 -16 45 -16 46 1 53 -13 55 -124 1 -33 14 -47 26 -28 8 12 13 13 29 3 15 -9
22 -10 27 -1 4 6 -1 15 -11 20 -12 7 -14 13 -6 17 18 12 22 51 5 51 -16 0 -19
16 -5 24 5 4 11 0 14 -6 2 -7 8 -10 12 -6 4 4 -2 22 -14 41 -22 37 -27 73 -11
97 8 13 10 12 15 -1 3 -9 28 -39 54 -67 46 -49 53 -52 110 -58 58 -6 77 -17
49 -27 -7 -2 -9 -8 -5 -13 10 -10 27 14 27 38 0 10 -5 15 -13 12 -7 -2 -24 5
-37 16 -16 14 -33 20 -49 17 -24 -5 -51 12 -51 31 0 6 -6 13 -12 16 -7 3 0 3
17 0 16 -3 33 -10 36 -16 4 -6 20 -8 37 -5 20 4 33 2 36 -6 3 -7 3 -1 0 13 -4
21 -3 23 8 10 7 -9 25 -14 41 -12 16 2 36 0 45 -4 10 -4 24 -6 33 -5 12 1 17
-6 17 -25 0 -25 19 -47 33 -39 4 3 14 20 23 40 18 38 52 50 43 15 -4 -14 2
-25 19 -36 29 -19 30 -32 7 -51 -16 -13 -16 -13 7 -8 32 8 62 43 55 64 -7 23
9 43 28 36 10 -5 18 -25 23 -61 5 -44 10 -54 25 -54 12 0 19 7 19 20 0 15 9
22 30 27 35 6 48 22 30 33 -7 4 2 6 21 5 19 -2 40 -4 46 -4 15 -1 42 -51 36
-67 -6 -17 27 -26 33 -10 9 24 -22 101 -40 98 -9 -2 -16 2 -16 8 0 12 22 13
35 1 14 -13 65 -23 65 -13 0 5 -37 27 -82 50 -59 29 -127 51 -238 77 -85 20
-198 48 -250 62 -57 16 -119 26 -155 26 -33 -1 -103 -2 -155 -3 -62 -2 -124 4
-175 15 -187 41 -279 67 -303 85 -28 23 -47 26 -36 8z m154 -89 c13 -9 13 -10
0 -6 -16 4 -40 -15 -40 -32 0 -6 -7 -11 -15 -11 -23 0 -18 36 8 48 28 14 29
14 47 1z m138 -81 c19 -19 14 -30 -8 -18 -11 6 -20 15 -20 20 0 14 14 12 28
-2z m177 -38 c3 -5 1 -10 -4 -10 -6 0 -11 5 -11 10 0 6 2 10 4 10 3 0 8 -4 11
-10z m-75 -10 c0 -5 -4 -10 -10 -10 -5 0 -10 5 -10 10 0 6 5 10 10 10 6 0 10
-4 10 -10z m637 -4 c1 -1 -3 -8 -8 -16 -8 -11 -12 -12 -16 -2 -5 13 -33 17
-33 4 0 -4 -10 -13 -22 -21 -21 -13 -22 -13 -9 2 7 10 10 17 5 17 -5 0 0 7 10
15 15 12 57 12 73 1z m-148 -17 c-13 -9 -28 -15 -34 -11 -5 4 -1 8 10 11 l20
4 -20 7 c-15 6 -12 8 14 7 l33 0 -23 -18z m231 1 c0 -5 -4 -10 -9 -10 -6 0
-13 5 -16 10 -3 6 1 10 9 10 9 0 16 -4 16 -10z m-742 -20 c-4 -17 -29 -21 -40
-5 -14 18 -8 25 17 23 17 -2 25 -8 23 -18z m65 -16 c11 -11 -5 -34 -24 -34
-12 0 -19 7 -19 20 0 19 28 28 43 14z"/>
<path d="M5780 3134 c0 -11 23 -49 46 -77 33 -40 30 -23 -7 35 -29 45 -39 56
-39 42z"/>
<path d="M4085 3060 c3 -5 8 -10 11 -10 2 0 4 5 4 10 0 6 -5 10 -11 10 -5 0
-7 -4 -4 -10z"/>
<path d="M4112 3018 c-13 -13 -16 -57 -4 -75 7 -11 26 -17 48 -14 7 1 6 18 -5
51 -16 53 -20 57 -39 38z"/>
<path d="M4070 2981 c0 -5 -3 -16 -6 -25 -3 -9 -2 -16 4 -16 13 0 23 38 11 46
-5 3 -9 1 -9 -5z"/>
<path d="M5906 2948 c11 -13 29 -40 39 -60 11 -21 25 -40 32 -43 11 -4 11 0 2
18 -21 38 -74 106 -83 107 -5 0 -1 -10 10 -22z"/>
<path d="M4105 2830 c-3 -5 1 -10 10 -10 9 0 13 5 10 10 -3 6 -8 10 -10 10 -2
0 -7 -4 -10 -10z"/>
<path d="M4594 2798 c-5 -13 -7 -27 -5 -33 3 -12 -28 -35 -48 -35 -13 0 -13 2
-3 9 18 11 -32 24 -59 16 -16 -5 -17 -10 -8 -27 8 -15 18 -19 37 -15 15 3 36
0 46 -5 16 -9 23 -7 35 13 9 12 17 40 18 61 2 43 -2 48 -13 16z m-87 -64 c-3
-3 -12 -4 -19 -1 -8 3 -5 6 6 6 11 1 17 -2 13 -5z"/>
<path d="M4135 2760 c-4 -6 -12 -10 -18 -9 -7 1 -21 1 -32 0 -16 -1 -17 -3 -5
-10 18 -10 80 -3 80 10 0 13 -18 20 -25 9z"/>
<path d="M5105 2760 c11 -18 -24 -43 -50 -36 -14 4 -25 2 -25 -4 0 -5 3 -9 8
-9 27 5 52 -3 52 -16 0 -8 5 -15 11 -15 6 0 9 9 6 20 -3 11 -2 20 3 20 15 0
18 39 3 44 -8 3 -11 1 -8 -4z"/>
<path d="M4390 2744 c0 -9 5 -14 12 -12 18 6 21 28 4 28 -9 0 -16 -7 -16 -16z"/>
<path d="M5120 2699 c0 -12 7 -19 20 -19 11 0 23 0 28 0 19 0 4 24 -20 31 -23
6 -28 4 -28 -12z"/>
<path d="M4765 2700 c-3 -5 0 -10 9 -10 8 0 16 -5 18 -12 3 -9 6 -9 11 -1 4 7
-1 17 -12 23 -13 7 -22 7 -26 0z"/>
<path d="M677 2643 c-2 -5 -1 -19 4 -33 7 -23 7 -23 8 8 1 31 -3 40 -12 25z"/>
<path d="M5290 2574 c0 -8 5 -12 10 -9 6 3 10 10 10 16 0 5 -4 9 -10 9 -5 0
-10 -7 -10 -16z"/>
<path d="M5390 2580 c-13 -8 -12 -10 3 -10 9 0 17 5 17 10 0 12 -1 12 -20 0z"/>
<path d="M5510 2530 c0 -5 -6 -9 -12 -7 -18 3 -23 -64 -6 -74 7 -5 21 -6 30
-3 11 3 19 -2 23 -16 4 -11 11 -18 16 -15 15 10 10 52 -7 59 -8 3 -13 9 -11
13 7 12 -11 53 -23 53 -5 0 -10 -4 -10 -10z"/>
<path d="M695 2368 c4 -46 13 -124 21 -174 8 -49 12 -103 8 -120 -7 -39 13
-614 25 -684 5 -30 15 -68 21 -85 6 -16 12 -62 13 -102 2 -45 7 -77 16 -85 11
-11 12 2 7 77 -4 50 -14 133 -22 185 -7 52 -14 133 -14 180 0 47 -7 144 -15
215 -8 72 -15 215 -15 318 0 186 -20 357 -42 357 -5 0 -6 -37 -3 -82z"/>
<path d="M0 2085 c0 -9 11 -35 24 -58 13 -23 29 -60 36 -82 7 -22 26 -67 43
-100 16 -33 42 -94 57 -135 16 -41 58 -147 94 -235 37 -88 76 -187 87 -220 11
-33 24 -69 29 -80 15 -33 48 -138 54 -172 3 -18 15 -52 26 -75 11 -23 20 -54
20 -69 0 -14 11 -56 25 -92 13 -36 26 -82 28 -102 3 -20 9 -41 16 -48 6 -6 11
-22 11 -35 0 -13 18 -60 39 -105 83 -173 111 -275 111 -398 l0 -79 105 0 c77
0 105 3 105 13 0 6 -11 37 -24 67 -93 216 -144 342 -183 450 -24 69 -51 143
-59 165 -9 22 -53 150 -100 285 -46 135 -106 290 -133 345 -27 55 -53 114 -57
130 -3 17 -37 94 -75 172 -38 79 -69 147 -69 153 0 17 -29 68 -66 117 -19 24
-34 50 -34 57 0 8 -25 44 -55 81 -31 37 -55 59 -55 50z"/>
<path d="M6137 2064 c-13 -13 -7 -24 14 -24 11 0 19 5 17 12 -5 14 -22 21 -31
12z"/>
<path d="M11770 685 c0 -8 -4 -15 -10 -15 -5 0 -10 -17 -10 -37 0 -32 2 -35
14 -23 17 18 30 90 16 90 -6 0 -10 -7 -10 -15z"/>
<path d="M11504 617 c-3 -9 -14 -19 -24 -22 -11 -3 -22 -16 -25 -28 -13 -45
-39 -93 -70 -132 -31 -39 -75 -132 -97 -205 -5 -19 -16 -42 -22 -50 -7 -8 -13
-31 -15 -51 -1 -19 -6 -51 -11 -70 -16 -56 -14 -59 40 -59 l49 0 16 58 c18 62
62 203 120 377 43 127 58 186 51 193 -3 3 -8 -2 -12 -11z"/>
<path d="M11708 583 c-10 -11 -18 -25 -18 -32 0 -12 -9 -25 -42 -62 -10 -10
-18 -26 -18 -35 0 -21 -18 -53 -51 -92 -16 -18 -29 -39 -29 -47 0 -8 -14 -45
-31 -82 -65 -142 -81 -179 -89 -205 l-9 -28 70 0 c67 0 69 1 75 27 3 16 10 38
15 51 5 13 9 34 9 47 0 14 9 34 21 46 14 14 19 28 15 44 -4 15 1 38 14 60 11
20 20 44 20 55 0 13 5 18 15 14 17 -7 19 4 6 25 -7 10 -2 24 15 44 30 36 36
58 32 131 -3 56 -4 58 -20 39z"/>
<path d="M840 296 c0 -14 5 -28 10 -31 6 -3 10 5 10 19 0 14 -4 28 -10 31 -6
3 -10 -5 -10 -19z"/>
<path d="M588 40 c11 -24 24 -40 34 -40 21 0 15 24 -15 58 -31 33 -38 27 -19
-18z"/>
</g>
</svg>
